<svg width="123" height="55" viewBox="0 0 123 55" fill="none" xmlns="http://www.w3.org/2000/svg">
<rect x="1.5" y="1.5" width="120" height="52" stroke="#2A2A2A" stroke-width="3"/>
<path d="M21.972 15.8H33.06V17.168C32.676 17.408 32.244 17.624 31.764 17.816C31.284 18.008 30.804 18.14 30.324 18.212V36.644C30.324 38.612 30.024 40.22 29.424 41.468C28.848 42.74 28.152 43.736 27.336 44.456C26.544 45.2 25.728 45.74 24.888 46.076C24.048 46.412 23.364 46.64 22.836 46.76L22.152 45.824C22.512 45.536 22.86 45.164 23.196 44.708C23.532 44.276 23.82 43.712 24.06 43.016C24.324 42.32 24.528 41.48 24.672 40.496C24.84 39.488 24.924 38.276 24.924 36.86V18.212C24.396 18.092 23.868 17.96 23.34 17.816C22.836 17.648 22.38 17.432 21.972 17.168V15.8ZM59.5116 15.8H68.4396V17.168C68.0796 17.36 67.6956 17.552 67.2876 17.744C66.9036 17.936 66.4716 18.092 65.9916 18.212L59.5836 27.608L67.0356 38.588C67.5876 38.708 68.0796 38.864 68.5116 39.056C68.9676 39.224 69.3996 39.416 69.8076 39.632V41H58.1436V39.632C58.5276 39.416 58.9236 39.224 59.3316 39.056C59.7636 38.864 60.2196 38.708 60.6996 38.588L55.5876 30.668L50.8356 38.624C51.3396 38.696 51.8076 38.816 52.2396 38.984C52.6716 39.152 53.0916 39.368 53.4996 39.632V41H44.2836V39.632C45.0756 39.152 45.8916 38.804 46.7316 38.588L53.9676 28.328L47.1996 18.212C46.7436 18.092 46.3116 17.936 45.9036 17.744C45.4956 17.552 45.0996 17.36 44.7156 17.168V15.8H56.1276V17.168C55.8396 17.336 55.4796 17.516 55.0476 17.708C54.6156 17.876 54.1116 18.044 53.5356 18.212L57.9276 25.448L62.2476 18.212C61.7676 18.116 61.2876 17.972 60.8076 17.78C60.3276 17.564 59.8956 17.36 59.5116 17.168V15.8ZM88.4581 38.588C89.5621 38.732 90.6061 39.08 91.5901 39.632V41H80.4661V39.632C80.8501 39.416 81.2581 39.224 81.6901 39.056C82.1221 38.864 82.5781 38.708 83.0581 38.588V18.212C82.5061 18.092 82.0141 17.936 81.5821 17.744C81.1741 17.552 80.8021 17.36 80.4661 17.168V15.8H99.2941C99.2941 16.28 99.2701 16.808 99.2221 17.384C99.1741 17.936 99.1141 18.512 99.0421 19.112C98.9941 19.688 98.9221 20.264 98.8261 20.84C98.7541 21.392 98.6701 21.908 98.5741 22.388H97.0981L95.4421 18.14H88.4581V27.608H93.3901L95.0101 24.836H96.0901C96.1861 25.46 96.2461 26.12 96.2701 26.816C96.3181 27.512 96.3421 28.208 96.3421 28.904C96.3181 29.624 96.2821 30.32 96.2341 30.992C96.2101 31.664 96.1621 32.264 96.0901 32.792H95.0101L93.3901 29.948H88.4581V38.588Z" fill="#2A2A2A"/>
</svg>
