<svg width="123" height="55" viewBox="0 0 123 55" fill="none" xmlns="http://www.w3.org/2000/svg">
<rect x="1.5" y="1.5" width="120" height="52" stroke="#2A2A2A" stroke-width="3"/>
<path d="M17.908 18.14C16.72 16.52 14.128 14.216 12.112 12.704L9.124 15.548C11.14 17.24 13.66 19.688 14.74 21.344L17.908 18.14ZM14.56 24.944C12.472 29.048 9.808 33.476 7.936 36.176L11.392 39.164C13.516 35.708 15.784 31.676 17.584 27.968L14.56 24.944ZM17.98 43.232C19.636 41.072 20.68 37.688 21.436 34.88L17.872 33.548C17.224 36.284 16.036 39.308 14.452 41.288L17.98 43.232ZM22.624 34.736C23.056 37.04 23.164 40.064 22.912 41.972L26.332 41.648C26.512 39.704 26.368 36.716 25.792 34.412L22.624 34.736ZM27.16 34.448C27.952 36.428 28.708 39.056 28.924 40.784L31.984 39.92C31.696 38.264 30.904 35.636 30.076 33.692L27.16 34.448ZM23.344 26.456H28.168V28.904H23.344V26.456ZM28.168 15.548V17.708H23.344V15.548H28.168ZM28.168 23.216H23.344V20.984H28.168V23.216ZM32.236 28.904V26.456H39.112V23.216H32.236V20.984H39.076V17.708H32.236V15.548H40.192V11.912H19.204V32.54H37.132C36.988 34.484 36.844 35.996 36.7 37.112C36.16 35.816 35.08 34.052 33.964 32.72L31.444 33.836C32.524 35.276 33.64 37.292 34.036 38.588L36.664 37.364C36.412 39.02 36.16 39.848 35.872 40.208C35.548 40.532 35.26 40.64 34.756 40.64C34.18 40.64 33.136 40.604 31.876 40.496C32.452 41.468 32.848 42.98 32.92 44.096C34.504 44.168 36.052 44.132 36.952 44.024C37.924 43.88 38.752 43.556 39.508 42.656C40.48 41.54 40.984 38.336 41.416 30.524C41.488 29.984 41.488 28.904 41.488 28.904H32.236ZM63.772 22.244H54.916V26.276H77.164V22.244H68.128V18.5H75.544V14.504H68.128V10.508H63.772V14.504H56.572V18.5H63.772V22.244ZM51.748 10.652C50.02 15.8 46.996 20.876 43.828 24.116C44.548 25.16 45.736 27.5 46.132 28.508C46.816 27.752 47.536 26.924 48.22 25.988V44.132H52.468V19.292C53.764 16.88 54.88 14.36 55.78 11.912L51.748 10.652ZM68.128 38.876V34.556H76.264V30.488H68.128V27.32H63.772V30.488H55.852V34.556H63.772V38.876H53.872V42.98H77.812V38.876H68.128ZM106.252 21.488V19.472H108.952V21.488H106.252ZM108.952 14.792V16.664H106.252V14.792H108.952ZM98.404 14.792V16.664H95.884V14.792H98.404ZM95.884 21.488V19.472H98.404V21.488H95.884ZM87.64 21.38C87.388 24.944 86.956 28.148 86.272 30.92C85.624 30.272 85.012 29.66 84.4 29.048C84.796 26.636 85.228 24.008 85.624 21.38H87.64ZM112.732 11.912H103.012V24.404H108.952V37.22C107.404 35.852 105.748 33.476 104.668 31.172H108.16V28.184H104.056V25.232H100.816V28.184H96.64V31.172H100.204C99.16 33.692 97.576 36.176 95.884 37.652V24.404H101.644V11.912H92.176V38.048C91.456 36.86 90.376 35.42 89.116 34.016C90.412 29.804 91.06 24.476 91.276 17.78L89.044 17.6L88.432 17.672H86.164C86.488 15.26 86.812 12.92 87.064 10.76L83.392 10.508C83.176 12.74 82.888 15.188 82.6 17.672H80.224V21.38H82.096C81.52 25.592 80.872 29.66 80.296 32.612L83.392 34.556L83.608 33.44C84.04 33.944 84.508 34.448 84.94 34.952C83.788 37.76 82.204 39.848 80.224 41.18C81.016 41.9 82.024 43.268 82.528 44.204C84.616 42.656 86.236 40.64 87.532 38.084C88.468 39.344 89.26 40.532 89.8 41.54L92.176 38.588V44.132H95.884V38.084C96.532 38.66 97.396 39.524 97.828 40.208C98.908 39.164 99.916 37.652 100.816 35.96V42.476H104.056V35.6C104.884 37.184 105.82 38.624 106.72 39.632C107.26 38.912 108.232 37.904 108.952 37.364V40.064C108.952 40.532 108.808 40.64 108.412 40.676C108.016 40.676 106.792 40.712 105.676 40.64C106.144 41.54 106.72 43.16 106.9 44.132C108.88 44.132 110.32 44.024 111.364 43.412C112.408 42.764 112.732 41.828 112.732 40.1V11.912Z" fill="#2A2A2A"/>
</svg>
