<svg width="123" height="55" viewBox="0 0 123 55" fill="none" xmlns="http://www.w3.org/2000/svg">
<rect x="1.5" y="1.5" width="120" height="52" stroke="#2A2A2A" stroke-width="3"/>
<path d="M16.9 18.68C15.748 17.096 13.336 14.792 11.284 13.172L9.412 14.864C11.428 16.556 13.804 19.004 14.884 20.624L16.9 18.68ZM15.1 25.736C13.048 29.732 10.312 34.412 8.44 37.112L10.6 38.948C12.724 35.672 15.136 31.244 17.008 27.5L15.1 25.736ZM17.044 42.692C18.772 40.532 19.888 37.04 20.572 34.304L18.412 33.512C17.728 36.176 16.54 39.488 14.848 41.432L17.044 42.692ZM22.912 34.448C23.344 36.716 23.596 39.704 23.452 41.576L25.684 41.36C25.756 39.452 25.504 36.5 24.964 34.232L22.912 34.448ZM27.448 34.088C28.348 36.068 29.248 38.66 29.5 40.424L31.48 39.848C31.156 38.12 30.256 35.528 29.32 33.584L27.448 34.088ZM22.12 25.916H28.636V29.408H22.12V25.916ZM28.636 14.9V18.284H22.12V14.9H28.636ZM28.636 23.792H22.12V20.408H28.636V23.792ZM31.156 29.408V25.916H39.112V23.792H31.156V20.408H39.04V18.284H31.156V14.9H40.084V12.56H19.528V31.784H38.32C37.96 38.084 37.492 40.532 36.844 41.252C36.592 41.576 36.268 41.576 35.692 41.576C35.116 41.576 33.64 41.576 32.02 41.468C32.416 42.08 32.668 43.052 32.74 43.736C34.396 43.844 36.016 43.844 36.88 43.772C37.852 43.7 38.5 43.448 39.112 42.8C40.048 41.684 40.516 38.696 40.984 30.596C41.056 30.236 41.056 29.408 41.056 29.408H31.156ZM36.808 37.508C36.268 36.14 34.936 34.124 33.604 32.648L31.948 33.404C33.172 34.916 34.504 37.004 35.044 38.408L36.808 37.508ZM64.348 23.216H54.844V25.772H76.696V23.216H67.012V18.104H75.076V15.584H67.012V10.868H64.348V15.584H56.608V18.104H64.348V23.216ZM52.72 11.012C50.884 16.448 47.86 21.812 44.584 25.304C45.016 25.916 45.808 27.284 46.096 27.932C47.104 26.744 48.148 25.412 49.12 23.972V43.772H51.748V19.616C53.08 17.06 54.268 14.432 55.24 11.732L52.72 11.012ZM67.012 39.848V33.836H75.688V31.316H67.012V27.212H64.348V31.316H55.852V33.836H64.348V39.848H53.692V42.44H77.416V39.848H67.012ZM88.396 20.66C88.108 25.304 87.496 29.264 86.524 32.504C85.552 31.532 84.544 30.632 83.572 29.804C84.076 26.996 84.616 23.828 85.156 20.66H88.396ZM89.332 18.212L88.936 18.284H85.552C85.948 15.764 86.308 13.28 86.632 11.084L84.22 10.868C83.968 13.1 83.644 15.656 83.248 18.284H80.584V20.66H82.888C82.204 25.16 81.412 29.624 80.728 32.684L82.78 33.8L83.068 32.432C83.932 33.224 84.796 34.124 85.66 34.988C84.4 38.12 82.744 40.388 80.656 41.828C81.232 42.296 81.916 43.196 82.204 43.808C84.364 42.152 86.092 39.92 87.388 36.932C88.576 38.336 89.584 39.668 90.232 40.784L91.888 38.804C91.132 37.508 89.872 35.96 88.396 34.376C89.728 30.272 90.52 25.052 90.808 18.428L89.332 18.212ZM99.016 14.432V17.348H94.588V14.432H99.016ZM94.588 22.316V19.256H99.016V22.316H94.588ZM101.14 24.296V12.488H92.248V43.736H94.588V24.296H101.14ZM108.484 30.74V28.688H103.228V25.16H101.14V28.688H95.812V30.74H100.528C99.196 33.692 97.036 36.752 94.984 38.264C95.488 38.66 96.1 39.38 96.46 39.848C98.116 38.444 99.844 36.068 101.14 33.512V42.008H103.228V33.296C104.452 35.708 106.072 38.048 107.548 39.452C107.944 38.912 108.592 38.228 109.096 37.904C107.188 36.428 105.1 33.44 103.84 30.74H108.484ZM105.172 22.316V19.256H109.852V22.316H105.172ZM109.852 14.432V17.348H105.172V14.432H109.852ZM112.228 12.488H103.048V24.296H109.852V40.82C109.852 41.288 109.708 41.432 109.312 41.432C108.844 41.432 107.548 41.468 106.108 41.396C106.468 42.008 106.828 43.088 106.936 43.7C108.916 43.7 110.284 43.628 111.112 43.268C111.976 42.836 112.228 42.116 112.228 40.82V12.488Z" fill="#2A2A2A"/>
</svg>
