<svg width="71" height="32" viewBox="0 0 71 32" fill="none" xmlns="http://www.w3.org/2000/svg">
<path d="M0.404 0.799998H9.548V1.844C9.116 2.036 8.672 2.216 8.216 2.384C7.76 2.528 7.292 2.648 6.812 2.744V22.904C6.812 24.584 6.62 25.964 6.236 27.044C5.852 28.124 5.372 28.988 4.796 29.636C4.244 30.308 3.644 30.8 2.996 31.112C2.372 31.424 1.796 31.64 1.268 31.76L0.872 31.22C1.232 30.908 1.556 30.548 1.844 30.14C2.156 29.756 2.42 29.264 2.636 28.664C2.876 28.064 3.056 27.332 3.176 26.468C3.296 25.604 3.356 24.548 3.356 23.3V2.744C2.828 2.624 2.312 2.492 1.808 2.348C1.304 2.204 0.836 2.036 0.404 1.844V0.799998ZM34.2434 0.799998H42.5234V1.844C42.1154 2.012 41.6834 2.18 41.2274 2.348C40.7714 2.492 40.3034 2.624 39.8234 2.744L33.4874 12.5L40.8674 24.092C42.0194 24.284 43.0034 24.572 43.8194 24.956V26H34.2434V24.956C35.1074 24.524 36.0194 24.236 36.9794 24.092L31.2914 15.056L25.8194 24.128C26.3234 24.2 26.8154 24.296 27.2954 24.416C27.7754 24.512 28.2434 24.692 28.6994 24.956V26H20.3834V24.956C20.8394 24.716 21.2834 24.536 21.7154 24.416C22.1714 24.296 22.6154 24.188 23.0474 24.092L30.1034 13.328L23.3354 2.744C22.8554 2.6 22.3754 2.456 21.8954 2.312C21.4394 2.168 20.9714 2.012 20.4914 1.844V0.799998H30.0314V1.844C29.6714 1.988 29.2634 2.132 28.8074 2.276C28.3754 2.42 27.8714 2.576 27.2954 2.744L32.3354 10.88L37.2314 2.744C36.2474 2.528 35.2514 2.228 34.2434 1.844V0.799998ZM59.9865 24.092C61.0425 24.236 62.0745 24.524 63.0825 24.956V26H53.9385V24.956C54.3465 24.764 54.7665 24.596 55.1985 24.452C55.6305 24.308 56.0745 24.188 56.5305 24.092V2.744C56.0025 2.624 55.5225 2.492 55.0905 2.348C54.6585 2.18 54.2745 2.012 53.9385 1.844V0.799998H70.8225C70.7985 1.736 70.7505 2.696 70.6785 3.68C70.6305 4.664 70.5465 5.648 70.4265 6.632H69.4905L68.0145 2.672H59.9865V12.932H66.2145L67.6905 10.268H68.5185C68.5665 10.82 68.6025 11.408 68.6265 12.032C68.6505 12.632 68.6625 13.244 68.6625 13.868C68.6625 14.516 68.6505 15.152 68.6265 15.776C68.6025 16.4 68.5665 16.988 68.5185 17.54H67.6905L66.2145 14.768H59.9865V24.092Z" fill="#2A2A2A"/>
</svg>
