<svg width="123" height="55" viewBox="0 0 123 55" fill="none" xmlns="http://www.w3.org/2000/svg">
<rect x="1.5" y="1.5" width="120" height="52" stroke="#2A2A2A" stroke-width="3"/>
<path d="M25.404 15.8H34.548V16.844C34.116 17.036 33.672 17.216 33.216 17.384C32.76 17.528 32.292 17.648 31.812 17.744V37.904C31.812 39.584 31.62 40.964 31.236 42.044C30.852 43.124 30.372 43.988 29.796 44.636C29.244 45.308 28.644 45.8 27.996 46.112C27.372 46.424 26.796 46.64 26.268 46.76L25.872 46.22C26.232 45.908 26.556 45.548 26.844 45.14C27.156 44.756 27.42 44.264 27.636 43.664C27.876 43.064 28.056 42.332 28.176 41.468C28.296 40.604 28.356 39.548 28.356 38.3V17.744C27.828 17.624 27.312 17.492 26.808 17.348C26.304 17.204 25.836 17.036 25.404 16.844V15.8ZM59.2434 15.8H67.5234V16.844C67.1154 17.012 66.6834 17.18 66.2274 17.348C65.7714 17.492 65.3034 17.624 64.8234 17.744L58.4874 27.5L65.8674 39.092C67.0194 39.284 68.0034 39.572 68.8194 39.956V41H59.2434V39.956C60.1074 39.524 61.0194 39.236 61.9794 39.092L56.2914 30.056L50.8194 39.128C51.3234 39.2 51.8154 39.296 52.2954 39.416C52.7754 39.512 53.2434 39.692 53.6994 39.956V41H45.3834V39.956C45.8394 39.716 46.2834 39.536 46.7154 39.416C47.1714 39.296 47.6154 39.188 48.0474 39.092L55.1034 28.328L48.3354 17.744C47.8554 17.6 47.3754 17.456 46.8954 17.312C46.4394 17.168 45.9714 17.012 45.4914 16.844V15.8H55.0314V16.844C54.6714 16.988 54.2634 17.132 53.8074 17.276C53.3754 17.42 52.8714 17.576 52.2954 17.744L57.3354 25.88L62.2314 17.744C61.2474 17.528 60.2514 17.228 59.2434 16.844V15.8ZM84.9865 39.092C86.0425 39.236 87.0745 39.524 88.0825 39.956V41H78.9385V39.956C79.3465 39.764 79.7665 39.596 80.1985 39.452C80.6305 39.308 81.0745 39.188 81.5305 39.092V17.744C81.0025 17.624 80.5225 17.492 80.0905 17.348C79.6585 17.18 79.2745 17.012 78.9385 16.844V15.8H95.8225C95.7985 16.736 95.7505 17.696 95.6785 18.68C95.6305 19.664 95.5465 20.648 95.4265 21.632H94.4905L93.0145 17.672H84.9865V27.932H91.2145L92.6905 25.268H93.5185C93.5665 25.82 93.6025 26.408 93.6265 27.032C93.6505 27.632 93.6625 28.244 93.6625 28.868C93.6625 29.516 93.6505 30.152 93.6265 30.776C93.6025 31.4 93.5665 31.988 93.5185 32.54H92.6905L91.2145 29.768H84.9865V39.092Z" fill="#2A2A2A"/>
</svg>
