<svg width="30" height="29" viewBox="0 0 30 29" fill="black" xmlns="http://www.w3.org/2000/svg">
<g filter="url(#filter0_d)">
<path d="M15 0.875C7.75195 0.875 1.875 6.75195 1.875 14C1.875 21.248 7.75195 27.125 15 27.125C22.248 27.125 28.125 21.248 28.125 14C28.125 6.75195 22.248 0.875 15 0.875ZM22.5 8.30762L21.3047 9.45312C21.1992 9.53223 21.1494 9.66113 21.1699 9.78711V18.2158C21.1494 18.3447 21.1992 18.4736 21.3047 18.5498L22.4766 19.6953V19.9502H16.5938V19.707L17.8037 18.5322C17.9238 18.4121 17.9238 18.377 17.9238 18.1982V11.3779L14.5547 19.9209H14.1006L10.1807 11.3779V17.1055C10.1455 17.3457 10.2305 17.5889 10.4004 17.7617L11.9766 19.6689V19.9238H7.5V19.6689L9.07617 17.7617C9.15922 17.6759 9.22102 17.5719 9.25663 17.4579C9.29224 17.344 9.30067 17.2233 9.28125 17.1055V10.4844C9.30176 10.2998 9.23144 10.1211 9.09082 9.99512L7.69043 8.30762V8.05273H12.041L15.3984 15.4209L18.3545 8.05859H22.5V8.30762Z"/>
</g>
<defs>
<filter id="filter0_d" x="-2.125" y="0.875" width="34.25" height="34.25" filterUnits="userSpaceOnUse" color-interpolation-filters="sRGB">
<feFlood flood-opacity="0" result="BackgroundImageFix"/>
<feColorMatrix in="SourceAlpha" type="matrix" values="0 0 0 0 0 0 0 0 0 0 0 0 0 0 0 0 0 0 127 0"/>
<feOffset dy="4"/>
<feGaussianBlur stdDeviation="2"/>
<feColorMatrix type="matrix" values="0 0 0 0 0 0 0 0 0 0 0 0 0 0 0 0 0 0 0.25 0"/>
<feBlend mode="normal" in2="BackgroundImageFix" result="effect1_dropShadow"/>
<feBlend mode="normal" in="SourceGraphic" in2="effect1_dropShadow" result="shape"/>
</filter>
</defs>
</svg>
