<svg width="32" height="32" viewBox="0 0 32 32" fill="none" xmlns="http://www.w3.org/2000/svg">
<path d="M5.94799 5.60902C6.93799 6.41602 7.31299 6.35902 9.18199 6.23402L26.802 5.17702C27.177 5.17702 26.865 4.80202 26.739 4.73902L23.812 2.62402C23.255 2.18602 22.505 1.69202 21.072 1.81102L4.01499 3.06102C3.38999 3.11802 3.26499 3.43102 3.51499 3.68102L5.94799 5.60902ZM7.00499 9.71902V28.255C7.00499 29.25 7.49999 29.625 8.61999 29.562L27.985 28.442C29.105 28.379 29.235 27.697 29.235 26.885V8.47402C29.235 7.66102 28.922 7.22902 28.235 7.29202L8.00099 8.47402C7.25099 8.53702 7.00599 8.90602 7.00599 9.71402L7.00499 9.71902ZM26.12 10.708C26.245 11.271 26.12 11.828 25.557 11.896L24.625 12.084V25.766C23.812 26.204 23.068 26.454 22.448 26.454C21.448 26.454 21.198 26.141 20.453 25.209L14.349 15.626V24.897L16.281 25.335C16.281 25.335 16.281 26.455 14.724 26.455L10.427 26.705C10.302 26.455 10.427 25.83 10.865 25.71L11.985 25.397V13.142L10.428 13.017C10.303 12.454 10.616 11.647 11.485 11.585L16.094 11.272L22.448 20.98V12.391L20.828 12.203C20.703 11.521 21.198 11.021 21.823 10.963L26.12 10.708ZM2.58299 1.38002L20.328 0.0730172C22.505 -0.114983 23.068 0.0100173 24.437 1.00502L30.104 4.98902C31.036 5.67102 31.349 5.85902 31.349 6.60402V28.443C31.349 29.813 30.849 30.62 29.109 30.745L8.49399 31.99C7.19199 32.053 6.56699 31.865 5.87899 30.995L1.70699 25.578C0.961994 24.583 0.649994 23.838 0.649994 22.969V3.55802C0.649994 2.43802 1.14999 1.50602 2.58199 1.38102L2.58299 1.38002Z" fill="black"/>
</svg>
