<svg width="79" height="32" viewBox="0 0 79 32" fill="none" xmlns="http://www.w3.org/2000/svg">
<path d="M0.972 0.799998H12.06V2.168C11.676 2.408 11.244 2.624 10.764 2.816C10.284 3.008 9.804 3.14 9.324 3.212V21.644C9.324 23.612 9.024 25.22 8.424 26.468C7.848 27.74 7.152 28.736 6.336 29.456C5.544 30.2 4.728 30.74 3.888 31.076C3.048 31.412 2.364 31.64 1.836 31.76L1.152 30.824C1.512 30.536 1.86 30.164 2.196 29.708C2.532 29.276 2.82 28.712 3.06 28.016C3.324 27.32 3.528 26.48 3.672 25.496C3.84 24.488 3.924 23.276 3.924 21.86V3.212C3.396 3.092 2.868 2.96 2.34 2.816C1.836 2.648 1.38 2.432 0.972 2.168V0.799998ZM38.5116 0.799998H47.4396V2.168C47.0796 2.36 46.6956 2.552 46.2876 2.744C45.9036 2.936 45.4716 3.092 44.9916 3.212L38.5836 12.608L46.0356 23.588C46.5876 23.708 47.0796 23.864 47.5116 24.056C47.9676 24.224 48.3996 24.416 48.8076 24.632V26H37.1436V24.632C37.5276 24.416 37.9236 24.224 38.3316 24.056C38.7636 23.864 39.2196 23.708 39.6996 23.588L34.5876 15.668L29.8356 23.624C30.3396 23.696 30.8076 23.816 31.2396 23.984C31.6716 24.152 32.0916 24.368 32.4996 24.632V26H23.2836V24.632C24.0756 24.152 24.8916 23.804 25.7316 23.588L32.9676 13.328L26.1996 3.212C25.7436 3.092 25.3116 2.936 24.9036 2.744C24.4956 2.552 24.0996 2.36 23.7156 2.168V0.799998H35.1276V2.168C34.8396 2.336 34.4796 2.516 34.0476 2.708C33.6156 2.876 33.1116 3.044 32.5356 3.212L36.9276 10.448L41.2476 3.212C40.7676 3.116 40.2876 2.972 39.8076 2.78C39.3276 2.564 38.8956 2.36 38.5116 2.168V0.799998ZM67.4581 23.588C68.5621 23.732 69.6061 24.08 70.5901 24.632V26H59.4661V24.632C59.8501 24.416 60.2581 24.224 60.6901 24.056C61.1221 23.864 61.5781 23.708 62.0581 23.588V3.212C61.5061 3.092 61.0141 2.936 60.5821 2.744C60.1741 2.552 59.8021 2.36 59.4661 2.168V0.799998H78.2941C78.2941 1.28 78.2701 1.808 78.2221 2.384C78.1741 2.936 78.1141 3.512 78.0421 4.112C77.9941 4.688 77.9221 5.264 77.8261 5.84C77.7541 6.392 77.6701 6.908 77.5741 7.388H76.0981L74.4421 3.14H67.4581V12.608H72.3901L74.0101 9.836H75.0901C75.1861 10.46 75.2461 11.12 75.2701 11.816C75.3181 12.512 75.3421 13.208 75.3421 13.904C75.3181 14.624 75.2821 15.32 75.2341 15.992C75.2101 16.664 75.1621 17.264 75.0901 17.792H74.0101L72.3901 14.948H67.4581V23.588Z" fill="#2A2A2A"/>
</svg>
