<svg width="30" height="30" viewBox="0 0 30 30" fill="black" xmlns="http://www.w3.org/2000/svg">
<path d="M15 0.599976C7.04701 0.599976 0.600006 7.04698 0.600006 15C0.600006 22.953 7.04701 29.4 15 29.4C22.953 29.4 29.4 22.953 29.4 15C29.4 7.04698 22.953 0.599976 15 0.599976ZM20.8575 12.396C20.8635 12.519 20.865 12.642 20.865 12.762C20.865 16.512 18.0135 20.8335 12.7965 20.8335C11.2549 20.836 9.74546 20.3933 8.44951 19.5585C8.67001 19.5855 8.89651 19.596 9.12601 19.596C10.455 19.596 11.6775 19.1445 12.648 18.3825C12.0566 18.3709 11.4835 18.175 11.0087 17.8223C10.5338 17.4695 10.1809 16.9774 9.99901 16.4145C10.4237 16.4952 10.8613 16.4783 11.2785 16.365C10.6366 16.2352 10.0593 15.8873 9.64457 15.3805C9.22983 14.8736 9.00317 14.2389 9.00301 13.584V13.5495C9.38551 13.761 9.82351 13.89 10.2885 13.905C9.6867 13.5044 9.26068 12.889 9.09757 12.1847C8.93446 11.4804 9.04658 10.7404 9.41101 10.116C10.1234 10.992 11.0119 11.7086 12.0189 12.2194C13.0258 12.7303 14.1288 13.024 15.2565 13.0815C15.1131 12.4729 15.1748 11.8341 15.432 11.2642C15.6892 10.6944 16.1274 10.2255 16.6786 9.93037C17.2298 9.63528 17.863 9.53056 18.4798 9.63248C19.0967 9.73441 19.6626 10.0373 20.0895 10.494C20.7243 10.3684 21.333 10.1356 21.8895 9.80548C21.678 10.4627 21.235 11.0207 20.643 11.376C21.2053 11.3083 21.7543 11.1571 22.272 10.9275C21.8917 11.4973 21.4127 11.9946 20.8575 12.396V12.396Z"/>
</svg>
